<?xml version="1.0" encoding="utf-8"?>
<!-- Generator: Adobe Illustrator 25.2.3, SVG Export Plug-In . SVG Version: 6.00 Build 0)  -->
<svg version="1.1" id="Layer_1" xmlns="http://www.w3.org/2000/svg" xmlns:xlink="http://www.w3.org/1999/xlink" x="0px" y="0px"
	 viewBox="0 0 546.2 183.64" style="enable-background:new 0 0 546.2 183.64;" xml:space="preserve">
<style type="text/css">
	.st0{fill:#8DC63F;}
	.st1{fill:#FFFFFF;}
</style>
<g>
	<g>
		<g>
			<path class="st0" d="M387.04,107.52h6.26c0,3.05,2.22,4.86,5.59,4.86c3.57,0,6.42-2.12,6.42-5.48v-4.19
				c-0.93,2.28-3.67,3.62-6.98,3.62c-8.38,0-11.28-6.42-11.28-13.09c0-7.92,4.97-13.24,11.12-13.24c3.21,0,5.54,1.24,7.14,3.83
				v-3.16h6.73v25.71c0,2.54-0.62,4.69-1.7,6.44h44.7l-17.47-24.55c0.56,1.95,0.85,4.24,0.85,6.89h-17.54
				c0.21,3.83,2.38,6.31,5.69,6.31c2.17,0,4.09-1.09,4.55-2.85h6.93c-1.55,5.23-5.74,8.17-11.18,8.17
				c-8.48,0-12.73-4.66-12.73-13.87c0-7.86,4.5-12.93,12.31-12.93c2.48,0,4.58,0.51,6.31,1.53l-6.4-8.99h-41.5v33.59h-6.47
				l-0.05-3.1c-1.6,2.59-3.98,3.78-7.09,3.78c-6.42,0-11.02-5.07-11.02-13.66c0-7.71,3.88-13.14,10.45-13.14
				c3.16,0,5.64,1.29,7.55,3.98V72.54h-43.46v16.82c1.19-5.79,5.4-9.36,11.95-9.36c7.81,0,11.95,5.07,11.95,15.16h-17.54
				c0.21,3.83,2.38,6.31,5.69,6.31c2.17,0,4.09-1.09,4.55-2.85h6.93c-1.55,5.23-5.74,8.17-11.18,8.17c-7.08,0-11.2-3.26-12.37-9.68
				v15.71h53.64C387.54,111.32,387.04,109.54,387.04,107.52z"/>
			<path class="st0" d="M372.87,85.74c-3.93,0-5.79,2.64-5.79,7.86c0,4.55,2.38,7.71,5.74,7.71c3.21,0,5.69-3,5.69-7.3
				C378.51,88.48,376.6,85.74,372.87,85.74z"/>
			<path class="st0" d="M346.54,85.32c-2.69,0-4.92,2.07-5.17,5.59h10.4C351.66,87.13,349.18,85.32,346.54,85.32z"/>
			<path class="st0" d="M421.08,90.91h10.4c-0.1-3.78-2.59-5.59-5.23-5.59C423.57,85.32,421.34,87.39,421.08,90.91z"/>
			<path class="st0" d="M399.77,85.84c-3.78,0-5.74,2.54-5.74,7.76c0,4.55,2.43,7.45,5.74,7.45c3.26,0,5.74-2.74,5.74-7.04
				C405.51,88.48,403.6,85.84,399.77,85.84z"/>
		</g>
		<g>
			<path class="st1" d="M159.31,149.66L110.32,35.78h24.57l24.5,58.09c1.04,2.53,1.98,4.96,2.83,7.29c0.79-2.28,1.76-4.69,2.9-7.22
				l24.42-58.17h24.42l-51.82,120.5L159.31,149.66z"/>
			<path class="st1" d="M215.12,112.35V59.66h22.51c2.53,0,4.84,0.52,6.95,1.56c2.1,1.04,3.91,2.4,5.42,4.08
				c1.51,1.68,2.7,3.59,3.57,5.71c0.87,2.13,1.3,4.28,1.3,6.46c0,2.33-0.41,4.55-1.23,6.68c-0.82,2.13-1.96,4.03-3.42,5.71
				c-1.46,1.68-3.23,3.02-5.31,4.01c-2.08,0.99-4.38,1.48-6.91,1.48h-10.7v16.99H215.12z M227.31,84.74h9.95
				c1.44,0,2.67-0.62,3.71-1.86c1.04-1.24,1.56-3.04,1.56-5.42c0-1.24-0.16-2.3-0.48-3.19c-0.32-0.89-0.76-1.63-1.3-2.23
				c-0.55-0.59-1.16-1.03-1.86-1.3c-0.69-0.27-1.39-0.41-2.08-0.41h-9.51V84.74z"/>
			<path class="st1" d="M283.39,83.55c-2.87,0.05-5.46,0.52-7.76,1.41c-2.3,0.89-4,2.23-5.09,4.01v23.38h-11.89V73.39h10.92v7.87
				c1.39-2.62,3.13-4.66,5.24-6.12c2.1-1.46,4.35-2.24,6.72-2.34c0.99,0,1.61,0.03,1.86,0.07V83.55z"/>
			<path class="st1" d="M304.86,113.09c-3.32,0-6.28-0.55-8.88-1.63c-2.6-1.09-4.79-2.56-6.57-4.42c-1.78-1.86-3.13-4.01-4.05-6.46
				c-0.92-2.45-1.38-5.01-1.38-7.68s0.46-5.23,1.38-7.68c0.92-2.45,2.27-4.6,4.05-6.46c1.78-1.86,3.97-3.34,6.57-4.45
				c2.6-1.11,5.56-1.67,8.88-1.67c3.32,0,6.26,0.56,8.84,1.67c2.57,1.11,4.75,2.6,6.54,4.45c1.78,1.86,3.14,4.01,4.09,6.46
				c0.94,2.45,1.41,5.01,1.41,7.68s-0.46,5.23-1.37,7.68c-0.92,2.45-2.27,4.6-4.05,6.46c-1.78,1.86-3.97,3.33-6.58,4.42
				C311.14,112.55,308.18,113.09,304.86,113.09 M296.17,92.91c0,3.07,0.82,5.53,2.45,7.38c1.63,1.86,3.71,2.78,6.24,2.78
				c1.24,0,2.38-0.25,3.42-0.74c1.04-0.49,1.94-1.19,2.71-2.08c0.77-0.89,1.37-1.97,1.82-3.23c0.45-1.26,0.67-2.63,0.67-4.12
				c0-3.07-0.82-5.53-2.45-7.38c-1.63-1.86-3.69-2.78-6.17-2.78c-1.24,0-2.39,0.25-3.45,0.74c-1.07,0.5-1.98,1.19-2.75,2.08
				c-0.77,0.89-1.37,1.97-1.82,3.23C296.39,90.05,296.17,91.42,296.17,92.91"/>
			<path class="st1" d="M125.1,145.63l-11.24-25.36H76.03l-12.28,27.22H38.88L94.87,27.36l55.99,120.13h-24.94L125.1,145.63z
				 M85.11,99.88h19.95L95.09,77.2L85.11,99.88z"/>
		</g>
	</g>
	<g>
		<path class="st1" d="M482.23,112.78v-5.62c-2.77,4.56-6.93,6.68-12.47,6.68c-7.99,0-13.61-5.95-13.61-14.75v-26.4h10.59v24.77
			c0,5.05,2.28,7.5,6.76,7.5c5.38,0,8.23-3.83,8.23-9.13V72.68h10.51v40.1H482.23z"/>
		<path class="st1" d="M496.73,67.88v-9.86h10.59v9.86H496.73z M496.73,112.78v-40.1h10.59v40.1H496.73z"/>
	</g>
</g>
</svg>
